
<?xml version="1.0" encoding="UTF-8"?>
<!DOCTYPE svg PUBLIC "-//W3C//DTD SVG 1.1//EN" "http://www.w3.org/Graphics/SVG/1.1/DTD/svg11.dtd">
<svg xmlns="http://www.w3.org/2000/svg" version="1.1" width="2400px" height="2400px" style="shape-rendering:geometricPrecision; text-rendering:geometricPrecision; image-rendering:optimizeQuality; fill-rule:evenodd; clip-rule:evenodd" xmlns:xlink="http://www.w3.org/1999/xlink">
<g><path style="opacity:0.981" fill="#000000" d="M 1608.5,824.5 C 1690.04,818.353 1752.21,849.686 1795,918.5C 1829.32,985.413 1828.98,1052.08 1794,1118.5C 1763.87,1170.68 1718.7,1200.51 1658.5,1208C 1595.97,1215.88 1540.64,1199.88 1492.5,1160C 1449.23,1118.55 1429.73,1067.72 1434,1007.5C 1438.54,929.682 1475.7,873.849 1545.5,840C 1565.83,831.573 1586.83,826.407 1608.5,824.5 Z M 1617.5,842.5 C 1664.4,840.694 1695.23,862.027 1710,906.5C 1719.73,940.294 1723.9,974.794 1722.5,1010C 1723.93,1047.92 1719.43,1085.08 1709,1121.5C 1702.61,1142.12 1691.78,1159.95 1676.5,1175C 1651.55,1192.73 1624.55,1196.4 1595.5,1186C 1576,1177.17 1561.83,1163 1553,1143.5C 1539.53,1112.61 1532.2,1080.28 1531,1046.5C 1530.21,1016.44 1531.21,986.439 1534,956.5C 1537.3,926.605 1547.3,899.272 1564,874.5C 1577.53,856.442 1595.36,845.775 1617.5,842.5 Z"/></g>
<g><path style="opacity:0.977" fill="#000000" d="M 91.5,832.5 C 186.5,832.5 281.5,832.5 376.5,832.5C 376.665,835.518 376.498,838.518 376,841.5C 308.167,953.833 240.333,1066.17 172.5,1178.5C 203.193,1179.8 233.86,1179.3 264.5,1177C 304.011,1175.01 334.178,1157.51 355,1124.5C 365.838,1106.82 373.338,1087.82 377.5,1067.5C 382.167,1067.5 386.833,1067.5 391.5,1067.5C 387.694,1111.56 383.361,1155.56 378.5,1199.5C 273.167,1199.5 167.833,1199.5 62.5,1199.5C 62.1115,1194.37 62.6115,1189.37 64,1184.5C 132.375,1073.58 200.875,962.75 269.5,852C 241.476,851.615 213.476,852.281 185.5,854C 158.302,855.842 136.802,867.675 121,889.5C 109.605,905.626 101.439,923.293 96.5,942.5C 90.8722,943.495 85.2055,943.829 79.5,943.5C 83.5,906.5 87.5,869.5 91.5,832.5 Z"/></g>
<g><path style="opacity:0.975" fill="#000000" d="M 516.5,832.5 C 620.833,832.5 725.167,832.5 829.5,832.5C 829.5,868.833 829.5,905.167 829.5,941.5C 824.5,941.5 819.5,941.5 814.5,941.5C 812.66,923.48 807.493,906.48 799,890.5C 786.271,870.538 768.104,858.705 744.5,855C 724.683,850.963 704.683,849.629 684.5,851C 677.677,851.565 671.01,852.898 664.5,855C 657.524,858.77 653.358,864.603 652,872.5C 651.5,915.499 651.333,958.499 651.5,1001.5C 668.719,1001.8 685.386,998.964 701.5,993C 714.508,986.324 723.675,976.157 729,962.5C 734.271,948.981 737.437,934.981 738.5,920.5C 743.833,920.5 749.167,920.5 754.5,920.5C 754.5,981.833 754.5,1043.17 754.5,1104.5C 749.167,1104.5 743.833,1104.5 738.5,1104.5C 738.703,1088.72 736.203,1073.39 731,1058.5C 723.066,1039.89 709.233,1028.72 689.5,1025C 676.892,1022.67 664.225,1020.84 651.5,1019.5C 651.333,1065.83 651.5,1112.17 652,1158.5C 653.613,1168.78 659.447,1175.28 669.5,1178C 750.169,1192.17 806.836,1162.01 839.5,1087.5C 845.128,1086.5 850.794,1086.17 856.5,1086.5C 849.277,1124.12 841.61,1161.62 833.5,1199C 727.834,1199.5 622.167,1199.67 516.5,1199.5C 516.5,1194.83 516.5,1190.17 516.5,1185.5C 528.72,1185.49 540.387,1182.99 551.5,1178C 556.337,1173.5 559.503,1168 561,1161.5C 562.155,1113.54 562.655,1065.54 562.5,1017.5C 562.333,971.167 562.167,924.833 562,878.5C 561.696,860.866 552.863,850.7 535.5,848C 529.204,846.988 522.871,846.488 516.5,846.5C 516.5,841.833 516.5,837.167 516.5,832.5 Z"/></g>
<g><path style="opacity:0.978" fill="#000000" d="M 984.5,832.5 C 1093.17,832.5 1201.83,832.5 1310.5,832.5C 1311.07,868.831 1311.4,905.164 1311.5,941.5C 1305.5,941.5 1299.5,941.5 1293.5,941.5C 1288.54,879.867 1255.2,849.201 1193.5,849.5C 1193.33,951.834 1193.5,1054.17 1194,1156.5C 1195.57,1170.84 1203.41,1179.34 1217.5,1182C 1226.77,1183.78 1236.1,1184.95 1245.5,1185.5C 1245.5,1190.17 1245.5,1194.83 1245.5,1199.5C 1180.83,1199.5 1116.17,1199.5 1051.5,1199.5C 1051.17,1194.79 1051.51,1190.12 1052.5,1185.5C 1064.17,1185.05 1075.5,1182.88 1086.5,1179C 1095.34,1173.47 1100.84,1165.64 1103,1155.5C 1104.48,1053.52 1104.98,951.523 1104.5,849.5C 1041.29,848.05 1006.62,878.717 1000.5,941.5C 994.833,941.5 989.167,941.5 983.5,941.5C 983.914,905.168 984.247,868.834 984.5,832.5 Z"/></g>
<g><path style="opacity:0.996" fill="#cc2128" d="M 2173.5,834.5 C 2238.03,836.347 2289.86,862.68 2329,913.5C 2364.33,965.154 2373.33,1021.15 2356,1081.5C 2328.39,1157.41 2274.56,1201.24 2194.5,1213C 2113.67,1217.67 2052.17,1185.84 2010,1117.5C 1976.25,1052.43 1977.58,988.098 2014,924.5C 2051.79,867.604 2104.96,837.604 2173.5,834.5 Z"/></g>
<g><path style="opacity:0.993" fill="#000000" d="M 1109.5,1287.5 C 1191.02,1284.32 1271.35,1292.49 1350.5,1312C 1468.05,1343.28 1562.38,1407.95 1633.5,1506C 1671.49,1504.58 1709.49,1502.91 1747.5,1501C 1775.7,1500.02 1803.37,1495.68 1830.5,1488C 1856.1,1479.37 1879.1,1466.37 1899.5,1449C 1927.17,1423.1 1951.67,1394.6 1973,1363.5C 1987.23,1342.27 2001.06,1320.77 2014.5,1299C 2116.17,1298.17 2217.83,1298.33 2319.5,1299.5C 2302.07,1350.02 2278.57,1397.35 2249,1441.5C 2192.19,1521.67 2114.36,1564.5 2015.5,1570C 1963.53,1572.31 1911.87,1568.98 1860.5,1560C 1783.17,1546.38 1706.67,1529.21 1631,1508.5C 1527.34,1538.16 1421.84,1558.33 1314.5,1569C 1175.59,1584.82 1045.59,1558.15 924.5,1489C 874.169,1459.5 824.169,1429.5 774.5,1399C 747.627,1383.97 720.627,1369.13 693.5,1354.5C 800.292,1326.18 908.625,1306.01 1018.5,1294C 1048.94,1291.16 1079.28,1288.99 1109.5,1287.5 Z"/></g>
<g><path style="opacity:0.992" fill="#000000" d="M 420.5,1302.5 C 490.102,1301.18 558.102,1311.01 624.5,1332C 646.247,1338.42 667.58,1345.92 688.5,1354.5C 645.805,1368.45 603.805,1384.29 562.5,1402C 537.161,1413.32 513.827,1427.66 492.5,1445C 454.432,1479.67 438.099,1522.84 443.5,1574.5C 307.165,1574.83 170.832,1574.5 34.5,1573.5C 67.3371,1529.82 101.504,1487.16 137,1445.5C 171.56,1406.25 211.393,1373.75 256.5,1348C 307.907,1320.65 362.574,1305.48 420.5,1302.5 Z"/></g>
</svg>
